<svg xmlns="http://www.w3.org/2000/svg" width="118.398" height="109" viewBox="0 0 118.398 109">
  <path id="art" d="M121.668,13.3a11.118,11.118,0,0,0-15.533-.259L52.355,63.329c-.014.014-.014.027-.027.041s-.027.014-.027.027L41.864,73.834a15.5,15.5,0,0,0-11.527,2.384C24.8,79.666,20.69,85.784,20.09,91.452c-.109,1.063-.164,2.139-.232,3.188a19.361,19.361,0,0,1-1.254,7.112,16.475,16.475,0,0,1-7.344,7.549,4.894,4.894,0,0,1-2.044.613h0a2.726,2.726,0,0,0,.136,5.45,13.62,13.62,0,0,1,3.216.913,23.414,23.414,0,0,0,2.725.886A63.274,63.274,0,0,0,29.819,119a39.965,39.965,0,0,0,12.89-1.989A26.47,26.47,0,0,0,60.422,96.071c.136-.831.218-1.69.3-2.562L71.567,82.664c.014-.014.014-.027.027-.027s.027-.014.041-.027l50.292-53.766A11.148,11.148,0,0,0,121.668,13.3Zm-80.7,98.553c-6.418,2.18-14.647,2.221-23.8.15a21.479,21.479,0,0,0,6.4-7.957c1.431-3.093,1.594-6.159,1.758-9.115.055-.967.109-1.935.2-2.916.409-3.951,3.652-8.652,7.7-11.186C35.2,79.6,38.158,78.385,41.237,79.3L55.271,93.332c-.055.64-.123,1.267-.232,1.88A20.757,20.757,0,0,1,40.965,111.849ZM58.078,88.454,46.524,76.886l7.712-7.712L65.79,80.742ZM117.935,25.11,69.564,76.818l-1.172-1.172-10.26-10.26,51.709-48.37a5.726,5.726,0,0,1,8.094,8.094Z" transform="translate(-6.559 -10.003)" fill="#fff"/>
</svg>
