<svg xmlns="http://www.w3.org/2000/svg" width="107.841" height="109" viewBox="0 0 107.841 109">
  <path id="book" d="M106.071,12.241h-4.847V9.818a2.434,2.434,0,0,0-1.83-2.351,82.71,82.71,0,0,0-39.368-.133,82.659,82.659,0,0,0-39.356.133,2.445,2.445,0,0,0-1.842,2.351v2.423H12.77a7.276,7.276,0,0,0-7.27,7.27v82.4a7.276,7.276,0,0,0,7.27,7.27h35.89a15.75,15.75,0,0,0,22.731,0h34.679a7.276,7.276,0,0,0,7.27-7.27v-82.4A7.276,7.276,0,0,0,106.071,12.241ZM62.45,11.732a78.165,78.165,0,0,1,33.927,0V92.807a82.773,82.773,0,0,0-33.927,0Zm-38.774,0a78.165,78.165,0,0,1,33.927,0V92.807a82.773,82.773,0,0,0-33.927,0Zm84.819,90.174a2.423,2.423,0,0,1-2.423,2.423H70.314a2.441,2.441,0,0,0-1.878.885,10.9,10.9,0,0,1-16.818,0,2.435,2.435,0,0,0-1.866-.885H12.77a2.423,2.423,0,0,1-2.423-2.423v-82.4a2.431,2.431,0,0,1,2.423-2.423h6.058v78.76A2.42,2.42,0,0,0,21.846,98.2a78.007,78.007,0,0,1,37.6,0c.012.012.024.012.048.012a1.533,1.533,0,0,0,.339.036,1.061,1.061,0,0,0,.194.024h.024a2.368,2.368,0,0,0,.569-.073,78.007,78.007,0,0,1,37.6,0,2.417,2.417,0,0,0,3.005-2.351V17.088h4.847a2.431,2.431,0,0,1,2.423,2.423S108.494,101.906,108.494,101.906ZM72.361,46.532c-.073,0-.145.012-.218.012a2.422,2.422,0,0,1-.218-4.835,81.361,81.361,0,0,1,14.977,0,2.421,2.421,0,1,1-.436,4.823A78.337,78.337,0,0,0,72.361,46.532Zm-2.629-14.31a2.42,2.42,0,0,1,2.193-2.629,81.361,81.361,0,0,1,14.977,0,2.421,2.421,0,1,1-.436,4.823,78.336,78.336,0,0,0-14.1,0c-.073,0-.145.012-.218.012A2.422,2.422,0,0,1,69.732,32.222Zm0-12.117a2.42,2.42,0,0,1,2.193-2.629,81.361,81.361,0,0,1,14.977,0,2.421,2.421,0,1,1-.436,4.823,78.336,78.336,0,0,0-14.1,0c-.073,0-.145.012-.218.012A2.422,2.422,0,0,1,69.732,20.1ZM33.587,46.532a2.421,2.421,0,0,1-.436-4.823,81.361,81.361,0,0,1,14.977,0,2.422,2.422,0,0,1-.218,4.835c-.073,0-.145-.012-.218-.012A78.337,78.337,0,0,0,33.587,46.532Zm-2.629-14.31a2.42,2.42,0,0,1,2.193-2.629,81.361,81.361,0,0,1,14.977,0,2.422,2.422,0,0,1-.218,4.835c-.073,0-.145-.012-.218-.012a78.336,78.336,0,0,0-14.1,0A2.411,2.411,0,0,1,30.958,32.222Zm0-12.117a2.42,2.42,0,0,1,2.193-2.629,81.361,81.361,0,0,1,14.977,0,2.422,2.422,0,0,1-.218,4.835c-.073,0-.145-.012-.218-.012a78.336,78.336,0,0,0-14.1,0A2.42,2.42,0,0,1,30.958,20.1Z" transform="translate(-5.5 -5.023)" fill="#fff"/>
</svg>
