<svg xmlns="http://www.w3.org/2000/svg" width="108.997" height="109" viewBox="0 0 108.997 109">
  <path id="science" d="M113.345,31.013a8.871,8.871,0,0,0-10.48-1.531L93.4,20.014A8.862,8.862,0,0,0,79.336,9.535a32.356,32.356,0,0,0-9.455,24.554,36.618,36.618,0,0,0-36.54,35.768,32.356,32.356,0,0,0-23.807,9.48A8.858,8.858,0,0,0,20,93.4l9.48,9.467a8.862,8.862,0,0,0,14.062,10.48,32.355,32.355,0,0,0,9.48-23.807A36.618,36.618,0,0,0,88.791,52.973c.544.025,1.088.076,1.633.076a32.339,32.339,0,0,0,22.921-9.505,8.861,8.861,0,0,0,0-12.53ZM67.565,64l-8.683-8.683a18.773,18.773,0,0,1,12.5-3.822A18.773,18.773,0,0,1,67.565,64ZM18.482,88.3A3.8,3.8,0,0,1,13.1,82.919a27.369,27.369,0,0,1,20.428-8l.734,8.1-.987-.089A18.49,18.49,0,0,0,18.482,88.3Zm5.544,1.962a13.434,13.434,0,0,1,8.784-2.291l1.924.177.165,1.911a13.442,13.442,0,0,1-2.278,8.8Zm15.935,19.517a3.808,3.808,0,0,1-5.366,0,3.82,3.82,0,0,1-.013-5.379,18.49,18.49,0,0,0,5.366-14.8l-.367-4.012L38.493,73.628c-.025-.342-.051-.683-.063-1.025l-.013-.177A31.6,31.6,0,0,1,70.3,39.151l.658,7.227A23.95,23.95,0,0,0,46.466,72.489l.139,1.493,1.2,13.226H47.8l.076.721A27.363,27.363,0,0,1,39.961,109.776ZM55.3,58.9l8.683,8.683a18.8,18.8,0,0,1-12.5,3.822A18.8,18.8,0,0,1,55.3,58.9ZM74.476,75.249a31.667,31.667,0,0,1-21.833,9.239l-.734-8c.228,0,.443.025.671.025A23.956,23.956,0,0,0,76.412,50.391L76.273,48.9,75.147,36.481l-.139-1.519a27.29,27.29,0,0,1,7.91-21.846,3.868,3.868,0,0,1,5.366,0,3.789,3.789,0,0,1,0,5.366l-.835.835a20.325,20.325,0,0,0-5.721,17.175l.316,2.2,1.38,9.708c.1.683.165,1.367.228,2.05A31.6,31.6,0,0,1,74.476,75.249ZM86.778,36.1l-.038-.316a15.239,15.239,0,0,1,3.392-11.872l8.834,8.834a15.253,15.253,0,0,1-11.872,3.392Zm22.985,3.86a27.347,27.347,0,0,1-21.3,7.948c-.013-.076-.013-.152-.025-.215l-.924-6.442a20.346,20.346,0,0,0,16.049-5.835l.835-.823a3.88,3.88,0,0,1,5.366,0,3.789,3.789,0,0,1,0,5.366Z" transform="translate(-6.942 -6.94)" fill="#fff"/>
</svg>
